<?xml version="1.0" encoding="UTF-8"?>
<!DOCTYPE svg PUBLIC "-//W3C//DTD SVG 1.1//EN" "http://www.w3.org/Graphics/SVG/1.1/DTD/svg11.dtd">
<svg version="1.2" width="171.47mm" height="50.72mm" viewBox="0 0 17147 5072" preserveAspectRatio="xMidYMid" fill-rule="evenodd" stroke-width="28.222" stroke-linejoin="round" xmlns="http://www.w3.org/2000/svg" xmlns:ooo="http://xml.openoffice.org/svg/export" xmlns:xlink="http://www.w3.org/1999/xlink" xmlns:presentation="http://sun.com/xmlns/staroffice/presentation" xmlns:smil="http://www.w3.org/2001/SMIL20/" xmlns:anim="urn:oasis:names:tc:opendocument:xmlns:animation:1.0" xml:space="preserve">
 <defs class="ClipPathGroup">
  <clipPath id="presentation_clip_path" clipPathUnits="userSpaceOnUse">
   <rect x="0" y="0" width="17147" height="5072"/>
  </clipPath>
  <clipPath id="presentation_clip_path_shrink" clipPathUnits="userSpaceOnUse">
   <rect x="17" y="5" width="17113" height="5062"/>
  </clipPath>
 </defs>
 <defs class="TextShapeIndex">
  <g ooo:slide="id1" ooo:id-list="id3 id4 id5"/>
 </defs>
 <defs class="EmbeddedBulletChars">
  <g id="bullet-char-template-57356" transform="scale(0.00048828125,-0.00048828125)">
   <path d="M 580,1141 L 1163,571 580,0 -4,571 580,1141 Z"/>
  </g>
  <g id="bullet-char-template-57354" transform="scale(0.00048828125,-0.00048828125)">
   <path d="M 8,1128 L 1137,1128 1137,0 8,0 8,1128 Z"/>
  </g>
  <g id="bullet-char-template-10146" transform="scale(0.00048828125,-0.00048828125)">
   <path d="M 174,0 L 602,739 174,1481 1456,739 174,0 Z M 1358,739 L 309,1346 659,739 1358,739 Z"/>
  </g>
  <g id="bullet-char-template-10132" transform="scale(0.00048828125,-0.00048828125)">
   <path d="M 2015,739 L 1276,0 717,0 1260,543 174,543 174,936 1260,936 717,1481 1274,1481 2015,739 Z"/>
  </g>
  <g id="bullet-char-template-10007" transform="scale(0.00048828125,-0.00048828125)">
   <path d="M 0,-2 C -7,14 -16,27 -25,37 L 356,567 C 262,823 215,952 215,954 215,979 228,992 255,992 264,992 276,990 289,987 310,991 331,999 354,1012 L 381,999 492,748 772,1049 836,1024 860,1049 C 881,1039 901,1025 922,1006 886,937 835,863 770,784 769,783 710,716 594,584 L 774,223 C 774,196 753,168 711,139 L 727,119 C 717,90 699,76 672,76 641,76 570,178 457,381 L 164,-76 C 142,-110 111,-127 72,-127 30,-127 9,-110 8,-76 1,-67 -2,-52 -2,-32 -2,-23 -1,-13 0,-2 Z"/>
  </g>
  <g id="bullet-char-template-10004" transform="scale(0.00048828125,-0.00048828125)">
   <path d="M 285,-33 C 182,-33 111,30 74,156 52,228 41,333 41,471 41,549 55,616 82,672 116,743 169,778 240,778 293,778 328,747 346,684 L 369,508 C 377,444 397,411 428,410 L 1163,1116 C 1174,1127 1196,1133 1229,1133 1271,1133 1292,1118 1292,1087 L 1292,965 C 1292,929 1282,901 1262,881 L 442,47 C 390,-6 338,-33 285,-33 Z"/>
  </g>
  <g id="bullet-char-template-9679" transform="scale(0.00048828125,-0.00048828125)">
   <path d="M 813,0 C 632,0 489,54 383,161 276,268 223,411 223,592 223,773 276,916 383,1023 489,1130 632,1184 813,1184 992,1184 1136,1130 1245,1023 1353,916 1407,772 1407,592 1407,412 1353,268 1245,161 1136,54 992,0 813,0 Z"/>
  </g>
  <g id="bullet-char-template-8226" transform="scale(0.00048828125,-0.00048828125)">
   <path d="M 346,457 C 273,457 209,483 155,535 101,586 74,649 74,723 74,796 101,859 155,911 209,963 273,989 346,989 419,989 480,963 531,910 582,859 608,796 608,723 608,648 583,586 532,535 482,483 420,457 346,457 Z"/>
  </g>
  <g id="bullet-char-template-8211" transform="scale(0.00048828125,-0.00048828125)">
   <path d="M -4,459 L 1135,459 1135,606 -4,606 -4,459 Z"/>
  </g>
  <g id="bullet-char-template-61548" transform="scale(0.00048828125,-0.00048828125)">
   <path d="M 173,740 C 173,903 231,1043 346,1159 462,1274 601,1332 765,1332 928,1332 1067,1274 1183,1159 1299,1043 1357,903 1357,740 1357,577 1299,437 1183,322 1067,206 928,148 765,148 601,148 462,206 346,322 231,437 173,577 173,740 Z"/>
  </g>
 </defs>
 <defs class="TextEmbeddedBitmaps"/>
 <g>
  <g id="id2" class="Master_Slide">
   <g id="bg-id2" class="Background"/>
   <g id="bo-id2" class="BackgroundObjects"/>
  </g>
 </g>
 <g class="SlideGroup">
  <g>
   <g id="container-id1">
    <g id="id1" class="Slide" clip-path="url(#presentation_clip_path)">
     <g class="Page">
      <g class="com.sun.star.drawing.ClosedBezierShape">
       <g id="id3">
        <rect class="BoundingBox" stroke="none" fill="none" x="197" y="225" width="2905" height="2935"/>
        <g>
         <defs>
          <linearGradient id="gradient1" x1="1649" y1="226" x2="1649" y2="3158" gradientUnits="userSpaceOnUse">
           <stop offset="0" style="stop-color:rgb(90,159,212)"/>
           <stop offset="1" style="stop-color:rgb(48,105,152)"/>
          </linearGradient>
         </defs>
         <path style="fill:url(#gradient1)" d="M 2135,226 L 2015,229 1899,237 1788,249 1683,265 1548,295 1491,313 1440,333 1396,355 1357,379 1324,406 1296,434 1273,466 1254,499 1239,535 1227,574 1219,615 1214,659 1210,756 1210,1117 2156,1117 2156,1237 1210,1237 855,1237 804,1239 753,1245 705,1254 657,1268 611,1285 567,1306 524,1331 484,1359 446,1391 411,1427 379,1467 349,1510 323,1556 299,1606 280,1660 264,1717 235,1846 214,1966 202,2080 197,2192 201,2304 213,2420 234,2544 264,2679 277,2731 293,2780 311,2827 332,2872 354,2914 380,2954 407,2990 437,3024 469,3054 504,3080 541,3103 581,3123 623,3138 668,3149 716,3156 766,3158 1092,3158 1092,2726 1095,2668 1104,2611 1119,2556 1139,2503 1164,2451 1194,2403 1228,2357 1267,2315 1309,2276 1355,2242 1403,2212 1455,2186 1509,2166 1565,2151 1623,2141 1683,2138 2628,2138 2676,2136 2724,2128 2769,2116 2813,2100 2854,2080 2893,2056 2929,2028 2963,1997 2993,1963 3020,1926 3044,1886 3064,1844 3080,1800 3091,1754 3098,1706 3101,1657 3101,756 3098,709 3091,663 3079,619 3063,577 3043,537 3019,499 2991,464 2961,430 2927,400 2890,371 2851,346 2810,323 2767,304 2722,288 2675,275 2628,265 2505,247 2381,235 2257,228 2135,226 Z M 1623,516 L 1641,517 1659,520 1676,524 1692,530 1707,538 1722,547 1736,557 1749,569 1760,582 1770,596 1779,611 1787,627 1793,643 1797,661 1800,679 1801,697 1800,715 1797,733 1793,750 1787,767 1779,783 1770,798 1760,811 1749,824 1736,836 1722,846 1707,855 1692,863 1676,869 1659,873 1641,876 1623,877 1605,876 1587,873 1570,869 1554,863 1538,855 1524,846 1510,836 1498,824 1486,811 1476,798 1467,783 1460,767 1454,750 1449,733 1447,715 1446,697 1447,679 1449,661 1454,643 1460,627 1467,611 1476,596 1486,582 1498,569 1510,557 1524,547 1538,538 1554,530 1570,524 1587,520 1605,517 1623,516 Z"/>
        </g>
       </g>
      </g>
      <g class="com.sun.star.drawing.ClosedBezierShape">
       <g id="id4">
        <rect class="BoundingBox" stroke="none" fill="none" x="1210" y="1237" width="2912" height="2957"/>
        <g>
         <defs>
          <linearGradient id="gradient2" x1="2665" y1="1237" x2="2665" y2="4192" gradientUnits="userSpaceOnUse">
           <stop offset="0" style="stop-color:rgb(255,212,59)"/>
           <stop offset="1" style="stop-color:rgb(255,232,115)"/>
          </linearGradient>
         </defs>
         <path style="fill:url(#gradient2)" d="M 3219,1237 L 3219,1657 3216,1717 3207,1776 3191,1833 3171,1888 3145,1941 3115,1990 3080,2036 3042,2079 2999,2118 2953,2153 2905,2184 2853,2209 2800,2230 2744,2245 2687,2254 2628,2257 1683,2257 1635,2260 1588,2267 1543,2279 1500,2296 1459,2316 1420,2341 1383,2369 1349,2400 1319,2435 1291,2472 1268,2512 1247,2554 1231,2597 1220,2643 1212,2690 1210,2738 1210,3639 1213,3686 1220,3730 1232,3772 1249,3812 1269,3849 1294,3884 1322,3917 1353,3948 1387,3976 1423,4003 1463,4027 1504,4050 1591,4089 1683,4120 1795,4150 1907,4172 2019,4186 2134,4192 2251,4189 2372,4176 2497,4153 2628,4120 2717,4091 2802,4054 2843,4033 2882,4009 2919,3984 2954,3956 2985,3926 3014,3893 3039,3858 3061,3820 3078,3779 3090,3735 3098,3689 3101,3639 3101,3278 2156,3278 2156,3158 3101,3158 3574,3158 3624,3156 3669,3149 3712,3138 3751,3124 3786,3105 3820,3082 3850,3056 3878,3026 3904,2993 3928,2956 3951,2917 3972,2875 4011,2781 4048,2678 4080,2567 4103,2456 4116,2344 4120,2229 4115,2110 4101,1986 4079,1855 4048,1717 4019,1618 4003,1571 3984,1526 3964,1484 3941,1445 3916,1408 3889,1374 3859,1344 3827,1317 3793,1293 3755,1273 3714,1258 3671,1246 3624,1239 3574,1237 3219,1237 Z M 2688,3519 L 2706,3520 2724,3523 2741,3527 2757,3533 2772,3541 2787,3550 2801,3560 2813,3571 2825,3584 2835,3598 2844,3613 2851,3628 2857,3645 2861,3662 2864,3680 2865,3698 2864,3717 2861,3734 2857,3752 2851,3768 2844,3784 2835,3799 2825,3813 2813,3826 2801,3838 2787,3848 2772,3857 2757,3865 2741,3871 2724,3875 2706,3878 2688,3879 2670,3878 2652,3875 2635,3871 2619,3865 2603,3857 2589,3848 2575,3838 2562,3826 2551,3813 2540,3799 2532,3784 2524,3768 2518,3752 2514,3734 2511,3717 2510,3698 2511,3680 2514,3662 2518,3645 2524,3628 2532,3613 2540,3598 2551,3584 2562,3571 2575,3560 2589,3550 2603,3541 2619,3533 2635,3527 2652,3523 2670,3520 2688,3519 Z"/>
        </g>
       </g>
      </g>
      <g class="com.sun.star.drawing.PolyPolygonShape">
       <g id="id5">
        <rect class="BoundingBox" stroke="none" fill="none" x="4191" y="247" width="727" height="390"/>
        <path fill="rgb(100,100,100)" stroke="none" d="M 4322,635 L 4377,635 4377,288 4508,288 4508,247 4191,247 4191,288 4322,288 4322,635 Z M 4557,635 L 4604,635 4604,318 4706,635 4758,635 4865,319 4865,635 4917,635 4917,247 4848,247 4732,579 4633,247 4557,247 4557,635 Z"/>
       </g>
      </g>
     </g>
    </g>
   </g>
  </g>
 </g>
</svg>